<?xml version="1.0" encoding="UTF-8" standalone="no"?>
<!-- Created with Inkscape (http://www.inkscape.org/) -->

<svg
   width="87.912842mm"
   height="134.73145mm"
   viewBox="0 0 87.912842 134.73145"
   version="1.1"
   id="svg5"
   xml:space="preserve"
   inkscape:version="1.2.2 (b0a8486541, 2022-12-01)"
   sodipodi:docname="Logo_versuche.svg"
   xmlns:inkscape="http://www.inkscape.org/namespaces/inkscape"
   xmlns:sodipodi="http://sodipodi.sourceforge.net/DTD/sodipodi-0.dtd"
   xmlns="http://www.w3.org/2000/svg"
   xmlns:svg="http://www.w3.org/2000/svg"><sodipodi:namedview
     id="namedview7"
     pagecolor="#ffffff"
     bordercolor="#666666"
     borderopacity="1.0"
     inkscape:showpageshadow="2"
     inkscape:pageopacity="0.0"
     inkscape:pagecheckerboard="0"
     inkscape:deskcolor="#d1d1d1"
     inkscape:document-units="mm"
     showgrid="false"
     inkscape:zoom="0.35355339"
     inkscape:cx="13794.239"
     inkscape:cy="6594.4778"
     inkscape:window-width="1920"
     inkscape:window-height="1008"
     inkscape:window-x="1920"
     inkscape:window-y="0"
     inkscape:window-maximized="0"
     inkscape:current-layer="layer1"
     showguides="true" /><defs
     id="defs2"><style
       id="style83745">.cls-1{fill-rule:evenodd;}</style><style
       id="style113731">.cls-1{fill-rule:evenodd;}</style></defs><g
     inkscape:label="Ebene 1"
     inkscape:groupmode="layer"
     id="layer1"
     transform="translate(-3319.3602,-1593.213)"><g
       id="g6156"
       transform="translate(0,-1.0241015e-4)"><text
         xml:space="preserve"
         style="font-size:17.4193px;line-height:1.25;font-family:Inter;-inkscape-font-specification:Inter;fill:#02b008;fill-opacity:1;stroke:none;stroke-width:0.19658;stroke-dasharray:none;stroke-opacity:1"
         x="3319.4438"
         y="1727.7158"
         id="text7516-0-2-5-7-4-3-6-01-1-8-9-9-2-7-1-4"><tspan
           sodipodi:role="line"
           id="tspan7514-4-7-0-7-3-83-7-3-0-1-1-8-7-4-1-9"
           style="font-style:normal;font-variant:normal;font-weight:normal;font-stretch:normal;font-family:Impact;-inkscape-font-specification:Impact;fill:#02b008;fill-opacity:1;stroke:none;stroke-width:0.19658;stroke-dasharray:none;stroke-opacity:1"
           x="3319.4438"
           y="1727.7158">K</tspan></text><text
         xml:space="preserve"
         style="font-size:9.79362px;line-height:1.25;font-family:Inter;-inkscape-font-specification:Inter;stroke-width:0.36726"
         x="3330.1301"
         y="1727.6519"
         id="text13228-6-1-3-6-4-0-0-5-4-6-7-1-0"><tspan
           sodipodi:role="line"
           id="tspan13226-4-4-3-0-8-1-9-0-0-7-1-0-9"
           style="font-style:normal;font-variant:normal;font-weight:normal;font-stretch:normal;font-size:17.6285px;font-family:Impact;-inkscape-font-specification:'Impact, Normal';font-variant-ligatures:normal;font-variant-caps:normal;font-variant-numeric:normal;font-variant-east-asian:normal;stroke-width:0.36726"
           x="3330.1301"
           y="1727.6519">ADERBLICK</tspan></text><path
         style="fill:#ffffff;fill-opacity:1;stroke:#000000;stroke-width:4;stroke-linecap:butt;stroke-linejoin:miter;stroke-dasharray:none;stroke-opacity:1"
         d="m 3322.5794,1609.7832 41.6078,-14.4496 40.9115,14.6236 0.1741,44.0452 c -0.3709,22.5985 -23.3111,39.2654 -41.5208,48.7456 -33.5979,-17.1524 -42.1708,-36.5239 -42.3913,-49.9643 z"
         id="path8808-4-0-7-8-3-3-4-8-1-1-2-1"
         sodipodi:nodetypes="ccccccc" /><path
         style="fill:none;stroke:#000000;stroke-width:4;stroke-linecap:butt;stroke-linejoin:miter;stroke-dasharray:none;stroke-opacity:1"
         d="m 3322.039,1639.661 h 83.3437"
         id="path10313-7-0-53-3-0-4-4-0-6-6-1-7" /><path
         style="fill:#22a447;fill-opacity:1;stroke-width:0.128452"
         id="path8688-45-47-5-2-3-0-9-0-7-8-2-7"
         sodipodi:type="arc"
         sodipodi:cx="3363.6987"
         sodipodi:cy="1612.8999"
         sodipodi:rx="5.4643841"
         sodipodi:ry="5.2864027"
         sodipodi:start="0"
         sodipodi:end="6.281029"
         sodipodi:open="true"
         sodipodi:arc-type="chord"
         d="m 3369.1631,1612.8999 a 5.4643841,5.2864027 0 0 1 -5.4614,5.2864 5.4643841,5.2864027 0 0 1 -5.4674,-5.2807 5.4643841,5.2864027 0 0 1 5.4556,-5.2921 5.4643841,5.2864027 0 0 1 5.4732,5.275 z" /><path
         style="fill:#22a447;fill-opacity:1;stroke-width:0.104987"
         id="path8688-4-2-6-97-20-0-2-6-5-1-0-5-1"
         sodipodi:type="arc"
         sodipodi:cx="3346.2961"
         sodipodi:cy="1619.0891"
         sodipodi:rx="4.5536532"
         sodipodi:ry="4.2377353"
         sodipodi:start="0"
         sodipodi:end="6.281029"
         sodipodi:open="true"
         sodipodi:arc-type="chord"
         d="m 3350.8498,1619.0891 a 4.5536532,4.2377353 0 0 1 -4.5512,4.2377 4.5536532,4.2377353 0 0 1 -4.5561,-4.2331 4.5536532,4.2377353 0 0 1 4.5463,-4.2423 4.5536532,4.2377353 0 0 1 4.561,4.2286 z" /><path
         style="fill:#22a447;fill-opacity:1;stroke-width:0.105609"
         id="path8688-4-7-5-89-8-6-0-6-7-9-8-6-7-15"
         sodipodi:type="arc"
         sodipodi:cx="3381.095"
         sodipodi:cy="1619.1373"
         sodipodi:rx="4.4601092"
         sodipodi:ry="4.3780518"
         sodipodi:start="0"
         sodipodi:end="6.281029"
         sodipodi:open="true"
         sodipodi:arc-type="chord"
         d="m 3385.5551,1619.1373 a 4.4601092,4.3780518 0 0 1 -4.4577,4.3781 4.4601092,4.3780518 0 0 1 -4.4625,-4.3734 4.4601092,4.3780518 0 0 1 4.4529,-4.3827 4.4601092,4.3780518 0 0 1 4.4673,4.3686 z" /><path
         id="path10367-43-6-3-6-2-3-3-9-8-6-3-9"
         style="fill:#22a447;fill-opacity:1;stroke-width:4.30101;stroke-dasharray:none"
         d="m 3346.3915,1625.0893 a 7.5,3.8820899 0 0 0 -7.4828,3.8091 h -0.01 v 0.077 5.4389 h 15.0002 v -5.443 -0.01 -0.065 h -0.01 a 7.5,3.8820899 0 0 0 -7.5076,-3.8091 z" /><path
         id="path10367-4-0-8-8-1-2-8-0-1-0-0-5-7"
         style="fill:#22a447;fill-opacity:1;stroke-width:5.65071;stroke-dasharray:none"
         d="m 3363.8545,1619.9041 a 10,5.0256577 0 0 0 -9.9818,4.9982 v 0 0.033 9.3684 h 20.0003 v -9.401 0 a 10,5.0256577 0 0 0 -10.0149,-4.9982 z" /><path
         id="path10367-5-7-79-3-0-2-6-9-8-7-9-0-7"
         style="fill:#22a447;fill-opacity:1;stroke-width:4.30101;stroke-dasharray:none"
         d="m 3381.3137,1625.1041 a 7.5,3.8820899 0 0 0 -7.4827,3.809 v 0 0.077 5.439 h 15.0001 v -5.4431 -0.01 -0.065 h -0.01 a 7.5,3.8820899 0 0 0 -7.5075,-3.8091 z" /><path
         style="fill:#22a447;fill-opacity:1;stroke:none;stroke-width:0.264583px;stroke-linecap:butt;stroke-linejoin:miter;stroke-opacity:1"
         d="m 3328.1244,1644.8866 16.0734,-0.1323 c 1.7027,14.5867 9.3594,17.7354 17.661,19.6453 l -0.066,30.2286 c 0,0 -8.9959,-4.6302 -9.1943,-5.027 -0.1984,-0.3969 0.1323,-20.5714 0.1323,-20.5714 -6.8077,-4.1235 -14.1567,-7.2417 -23.4156,-6.813 -1.8609,-5.1113 -1.3116,-11.2099 -1.1907,-17.3302 z"
         id="path20055-8-0-79-57-4-7-6-2-8-0-1-6"
         sodipodi:nodetypes="ccccsccc" /><path
         style="fill:#22a447;fill-opacity:1;stroke:none;stroke-width:0.264583px;stroke-linecap:butt;stroke-linejoin:miter;stroke-opacity:1"
         d="m 3399.4183,1644.8585 -16.0735,-0.1323 c -1.7026,14.5868 -9.3593,17.7355 -17.6609,19.6454 l 0.066,30.2286 c 0,0 8.9958,-4.6302 9.1943,-5.0271 0.1984,-0.3969 -0.1323,-20.5713 -0.1323,-20.5713 6.8077,-4.1235 14.1567,-7.2417 23.4156,-6.8131 1.8609,-5.1112 1.3116,-11.2098 1.1907,-17.3302 z"
         id="path20055-9-6-3-3-42-7-0-6-8-6-5-5-7"
         sodipodi:nodetypes="ccccsccc" /><path
         style="fill:#22a447;fill-opacity:1;stroke:none;stroke-width:0.264583px;stroke-linecap:butt;stroke-linejoin:miter;stroke-opacity:1"
         d="m 3330.7041,1665.491 c 6.2844,-0.1459 12.489,1.4353 18.6531,5.6885 v 15.875 c -6.8378,-5.2005 -16.525,-14.3492 -18.6531,-21.5635 z"
         id="path21800-8-33-7-0-9-8-0-7-6-8-8-3"
         sodipodi:nodetypes="cccc" /><path
         style="fill:#22a447;fill-opacity:1;stroke:none;stroke-width:0.264583px;stroke-linecap:butt;stroke-linejoin:miter;stroke-opacity:1"
         d="m 3397.0136,1665.6212 c -6.2844,-0.1459 -12.489,1.4353 -18.6531,5.6886 v 15.875 c 6.8378,-5.2006 16.5249,-14.3492 18.6531,-21.5636 z"
         id="path21800-7-8-73-8-0-8-1-4-6-9-7-6-6"
         sodipodi:nodetypes="cccc" /><path
         style="fill:#ffffff;fill-opacity:1;stroke-width:3.96912;stroke-dasharray:none"
         id="path10311-4-2-7-3-5-9-5-8-6-0-7-5"
         sodipodi:type="arc"
         sodipodi:cx="3363.7932"
         sodipodi:cy="1645.1674"
         sodipodi:rx="19"
         sodipodi:ry="19"
         sodipodi:start="0"
         sodipodi:end="6.281029"
         sodipodi:open="true"
         sodipodi:arc-type="chord"
         d="m 3382.7932,1645.1674 a 19,19 0 0 1 -18.9897,19 19,19 0 0 1 -19.0103,-18.9796 19,19 0 0 1 18.9693,-19.0204 19,19 0 0 1 19.0307,18.959 z" /><path
         style="fill:#22a447;fill-opacity:1;stroke:none;stroke-width:4.15817;stroke-dasharray:none"
         id="path23528-4-7-3-3-2-2-2-8-5-4-1-6"
         sodipodi:type="arc"
         sodipodi:cx="3363.7932"
         sodipodi:cy="1645.1674"
         sodipodi:rx="14"
         sodipodi:ry="14"
         sodipodi:start="0"
         sodipodi:end="6.281029"
         sodipodi:open="true"
         sodipodi:arc-type="chord"
         d="m 3377.7932,1645.1674 a 14,14 0 0 1 -13.9924,14 14,14 0 0 1 -14.0076,-13.9849 14,14 0 0 1 13.9774,-14.0151 14,14 0 0 1 14.0226,13.9698 z" /><rect
         style="fill:#ffffff;fill-opacity:1;stroke:none;stroke-width:0.685941;stroke-dasharray:none"
         id="rect77173-0-0-3-7-1-2-9-8-6-0-9-3"
         width="3.0086422"
         height="5.2686377"
         x="3354.8"
         y="1646.3413" /><rect
         style="fill:#ffffff;fill-opacity:1;stroke:none;stroke-width:1.00248;stroke-dasharray:none"
         id="rect77173-2-69-7-3-8-6-8-8-7-6-0-0-94"
         width="3.0086422"
         height="11.253174"
         x="3364.7849"
         y="1640.3568" /><rect
         style="fill:#ffffff;fill-opacity:1;stroke:none;stroke-width:0.872946;stroke-dasharray:none"
         id="rect77173-2-8-2-8-4-6-4-6-3-6-1-6-2-8"
         width="3.0086422"
         height="8.5329304"
         x="3359.7925"
         y="1643.077" /><rect
         style="fill:#ffffff;fill-opacity:1;stroke:none;stroke-width:1.07272;stroke-dasharray:none"
         id="rect77173-5-1-99-2-0-8-8-7-0-7-2-3-1"
         width="3.0086422"
         height="12.885321"
         x="3369.7773"
         y="1638.7246" /></g></g><style
     type="text/css"
     id="style82399"><![CDATA[
	.st0{fill:#4CAF50;}
	.st1{fill:#2196F3;}
	.st2{fill:#F44336;}
	.st3{fill:#262626;}
	.st4{fill:#FFD54F;}
	.st5{fill-rule:evenodd;clip-rule:evenodd;fill:#262626;}
	.st6{fill-rule:evenodd;clip-rule:evenodd;fill:#FFFFFF;}
]]></style></svg>
