<?xml version="1.0" encoding="UTF-8" standalone="no"?>
<!-- Created with Inkscape (http://www.inkscape.org/) -->

<svg
   width="111.99976mm"
   height="112mm"
   viewBox="0 0 111.99976 112"
   version="1.1"
   id="svg5"
   xml:space="preserve"
   inkscape:version="1.2.2 (b0a8486541, 2022-12-01)"
   sodipodi:docname="Logo_versuche.svg"
   xmlns:inkscape="http://www.inkscape.org/namespaces/inkscape"
   xmlns:sodipodi="http://sodipodi.sourceforge.net/DTD/sodipodi-0.dtd"
   xmlns="http://www.w3.org/2000/svg"
   xmlns:svg="http://www.w3.org/2000/svg"><sodipodi:namedview
     id="namedview7"
     pagecolor="#ffffff"
     bordercolor="#666666"
     borderopacity="1.0"
     inkscape:showpageshadow="2"
     inkscape:pageopacity="0.0"
     inkscape:pagecheckerboard="0"
     inkscape:deskcolor="#d1d1d1"
     inkscape:document-units="mm"
     showgrid="false"
     inkscape:zoom="0.35355339"
     inkscape:cx="13794.239"
     inkscape:cy="6594.4778"
     inkscape:window-width="1920"
     inkscape:window-height="1008"
     inkscape:window-x="1920"
     inkscape:window-y="0"
     inkscape:window-maximized="0"
     inkscape:current-layer="layer1"
     showguides="true" /><defs
     id="defs2"><style
       id="style83745">.cls-1{fill-rule:evenodd;}</style><style
       id="style113731">.cls-1{fill-rule:evenodd;}</style></defs><g
     inkscape:label="Ebene 1"
     inkscape:groupmode="layer"
     id="layer1"
     transform="translate(-3310.4915,-1753.8957)"><g
       id="g9933"
       transform="translate(0,-0.07653809)"
       inkscape:export-filename="./kaderblick_website_appicon.svg"
       inkscape:export-xdpi="7.27"
       inkscape:export-ydpi="7.27"><rect
         style="opacity:0.00100002;fill:#02b008;fill-opacity:1;stroke:none;stroke-width:3.51033;stroke-dasharray:none"
         id="rect26435-7-8-0-8-4-7-5-3-6-6-9-8"
         width="112"
         height="112"
         x="3310.4915"
         y="1753.9723"
         inkscape:export-filename="g23468-2.png"
         inkscape:export-xdpi="7.27"
         inkscape:export-ydpi="7.27" /><path
         style="fill:#ffffff;fill-opacity:1;stroke:#000000;stroke-width:4;stroke-linecap:butt;stroke-linejoin:miter;stroke-dasharray:none;stroke-opacity:1"
         d="m 3325.7544,1770.6499 41.6078,-14.4497 40.9115,14.6237 0.1741,44.0452 c -0.3709,22.5985 -23.3111,39.2654 -41.5208,48.7456 -33.5979,-17.1524 -42.1708,-36.5239 -42.3913,-49.9643 z"
         id="path8808-4-0-7-8-3-3-4-8-1-1-2-0"
         sodipodi:nodetypes="ccccccc" /><path
         style="fill:none;stroke:#000000;stroke-width:4;stroke-linecap:butt;stroke-linejoin:miter;stroke-dasharray:none;stroke-opacity:1"
         d="m 3325.214,1800.5277 h 83.3437"
         id="path10313-7-0-53-3-0-4-4-0-6-6-1-3" /><path
         style="fill:#22a447;fill-opacity:1;stroke-width:0.128452"
         id="path8688-45-47-5-2-3-0-9-0-7-8-2-4"
         sodipodi:type="arc"
         sodipodi:cx="3366.8738"
         sodipodi:cy="1773.7666"
         sodipodi:rx="5.4643841"
         sodipodi:ry="5.2864027"
         sodipodi:start="0"
         sodipodi:end="6.281029"
         sodipodi:open="true"
         sodipodi:arc-type="chord"
         d="m 3372.3382,1773.7666 a 5.4643841,5.2864027 0 0 1 -5.4615,5.2864 5.4643841,5.2864027 0 0 1 -5.4673,-5.2807 5.4643841,5.2864027 0 0 1 5.4555,-5.2921 5.4643841,5.2864027 0 0 1 5.4733,5.275 z" /><path
         style="fill:#22a447;fill-opacity:1;stroke-width:0.104987"
         id="path8688-4-2-6-97-20-0-2-6-5-1-0-5-0"
         sodipodi:type="arc"
         sodipodi:cx="3349.4712"
         sodipodi:cy="1779.9558"
         sodipodi:rx="4.5536532"
         sodipodi:ry="4.2377353"
         sodipodi:start="0"
         sodipodi:end="6.281029"
         sodipodi:open="true"
         sodipodi:arc-type="chord"
         d="m 3354.0248,1779.9558 a 4.5536532,4.2377353 0 0 1 -4.5512,4.2377 4.5536532,4.2377353 0 0 1 -4.5561,-4.2331 4.5536532,4.2377353 0 0 1 4.5463,-4.2423 4.5536532,4.2377353 0 0 1 4.561,4.2286 z" /><path
         style="fill:#22a447;fill-opacity:1;stroke-width:0.105609"
         id="path8688-4-7-5-89-8-6-0-6-7-9-8-6-7-3"
         sodipodi:type="arc"
         sodipodi:cx="3384.27"
         sodipodi:cy="1780.0039"
         sodipodi:rx="4.4601092"
         sodipodi:ry="4.3780518"
         sodipodi:start="0"
         sodipodi:end="6.281029"
         sodipodi:open="true"
         sodipodi:arc-type="chord"
         d="m 3388.7301,1780.0039 a 4.4601092,4.3780518 0 0 1 -4.4577,4.3781 4.4601092,4.3780518 0 0 1 -4.4625,-4.3734 4.4601092,4.3780518 0 0 1 4.4529,-4.3827 4.4601092,4.3780518 0 0 1 4.4673,4.3686 z" /><path
         id="path10367-43-6-3-6-2-3-3-9-8-6-3-91"
         style="fill:#22a447;fill-opacity:1;stroke-width:4.30101;stroke-dasharray:none"
         d="m 3349.5665,1785.956 a 7.5,3.8820899 0 0 0 -7.4828,3.8091 h -0.01 v 0.077 5.4389 h 15.0002 v -5.443 -0.01 -0.065 h -0.01 a 7.5,3.8820899 0 0 0 -7.5076,-3.8091 z" /><path
         id="path10367-4-0-8-8-1-2-8-0-1-0-0-5-9"
         style="fill:#22a447;fill-opacity:1;stroke-width:5.65071;stroke-dasharray:none"
         d="m 3367.0295,1780.7708 a 10,5.0256577 0 0 0 -9.9818,4.9982 v 0 0.033 9.3684 h 20.0003 v -9.401 0 a 10,5.0256577 0 0 0 -10.0149,-4.9982 z" /><path
         id="path10367-5-7-79-3-0-2-6-9-8-7-9-0-6"
         style="fill:#22a447;fill-opacity:1;stroke-width:4.30101;stroke-dasharray:none"
         d="m 3384.4887,1785.9708 a 7.5,3.8820899 0 0 0 -7.4827,3.809 v 0 0.077 5.439 h 15.0001 v -5.4431 -0.01 -0.065 h -0.01 a 7.5,3.8820899 0 0 0 -7.5075,-3.8091 z" /><path
         style="fill:#22a447;fill-opacity:1;stroke:none;stroke-width:0.264583px;stroke-linecap:butt;stroke-linejoin:miter;stroke-opacity:1"
         d="m 3331.2994,1805.7533 16.0734,-0.1323 c 1.7027,14.5867 9.3594,17.7354 17.661,19.6453 l -0.066,30.2286 c 0,0 -8.9959,-4.6302 -9.1943,-5.027 -0.1984,-0.3969 0.1323,-20.5714 0.1323,-20.5714 -6.8077,-4.1235 -14.1567,-7.2417 -23.4156,-6.813 -1.8609,-5.1113 -1.3116,-11.2099 -1.1907,-17.3302 z"
         id="path20055-8-0-79-57-4-7-6-2-8-0-1-9"
         sodipodi:nodetypes="ccccsccc" /><path
         style="fill:#22a447;fill-opacity:1;stroke:none;stroke-width:0.264583px;stroke-linecap:butt;stroke-linejoin:miter;stroke-opacity:1"
         d="m 3402.5933,1805.7252 -16.0735,-0.1323 c -1.7026,14.5868 -9.3593,17.7355 -17.6609,19.6454 l 0.066,30.2286 c 0,0 8.9958,-4.6302 9.1943,-5.0271 0.1984,-0.3969 -0.1323,-20.5713 -0.1323,-20.5713 6.8077,-4.1235 14.1567,-7.2417 23.4156,-6.8131 1.8609,-5.1112 1.3116,-11.2098 1.1907,-17.3302 z"
         id="path20055-9-6-3-3-42-7-0-6-8-6-5-5-3"
         sodipodi:nodetypes="ccccsccc" /><path
         style="fill:#22a447;fill-opacity:1;stroke:none;stroke-width:0.264583px;stroke-linecap:butt;stroke-linejoin:miter;stroke-opacity:1"
         d="m 3333.8791,1826.3577 c 6.2844,-0.1459 12.489,1.4353 18.6531,5.6885 v 15.875 c -6.8378,-5.2005 -16.525,-14.3492 -18.6531,-21.5635 z"
         id="path21800-8-33-7-0-9-8-0-7-6-8-8-38"
         sodipodi:nodetypes="cccc" /><path
         style="fill:#22a447;fill-opacity:1;stroke:none;stroke-width:0.264583px;stroke-linecap:butt;stroke-linejoin:miter;stroke-opacity:1"
         d="m 3400.1886,1826.4879 c -6.2844,-0.1459 -12.489,1.4353 -18.6531,5.6886 v 15.875 c 6.8378,-5.2006 16.5249,-14.3492 18.6531,-21.5636 z"
         id="path21800-7-8-73-8-0-8-1-4-6-9-7-6-0"
         sodipodi:nodetypes="cccc" /><path
         style="fill:#ffffff;fill-opacity:1;stroke-width:3.96912;stroke-dasharray:none"
         id="path10311-4-2-7-3-5-9-5-8-6-0-7-56"
         sodipodi:type="arc"
         sodipodi:cx="3366.9683"
         sodipodi:cy="1806.0339"
         sodipodi:rx="19"
         sodipodi:ry="19"
         sodipodi:start="0"
         sodipodi:end="6.281029"
         sodipodi:open="true"
         sodipodi:arc-type="chord"
         d="m 3385.9683,1806.0339 a 19,19 0 0 1 -18.9898,19 19,19 0 0 1 -19.0102,-18.9795 19,19 0 0 1 18.9692,-19.0204 19,19 0 0 1 19.0307,18.959 z" /><path
         style="fill:#22a447;fill-opacity:1;stroke:none;stroke-width:4.15817;stroke-dasharray:none"
         id="path23528-4-7-3-3-2-2-2-8-5-4-1-64"
         sodipodi:type="arc"
         sodipodi:cx="3366.9683"
         sodipodi:cy="1806.0339"
         sodipodi:rx="14"
         sodipodi:ry="14"
         sodipodi:start="0"
         sodipodi:end="6.281029"
         sodipodi:open="true"
         sodipodi:arc-type="chord"
         d="m 3380.9683,1806.0339 a 14,14 0 0 1 -13.9925,14 14,14 0 0 1 -14.0075,-13.9849 14,14 0 0 1 13.9773,-14.015 14,14 0 0 1 14.0226,13.9697 z" /><rect
         style="fill:#ffffff;fill-opacity:1;stroke:none;stroke-width:0.685941;stroke-dasharray:none"
         id="rect77173-0-0-3-7-1-2-9-8-6-0-9-0"
         width="3.0086422"
         height="5.2686377"
         x="3357.9751"
         y="1807.208" /><rect
         style="fill:#ffffff;fill-opacity:1;stroke:none;stroke-width:1.00248;stroke-dasharray:none"
         id="rect77173-2-69-7-3-8-6-8-8-7-6-0-0-0"
         width="3.0086422"
         height="11.253174"
         x="3367.96"
         y="1801.2235" /><rect
         style="fill:#ffffff;fill-opacity:1;stroke:none;stroke-width:0.872946;stroke-dasharray:none"
         id="rect77173-2-8-2-8-4-6-4-6-3-6-1-6-2-4"
         width="3.0086422"
         height="8.5329304"
         x="3362.9675"
         y="1803.9437" /><rect
         style="fill:#ffffff;fill-opacity:1;stroke:none;stroke-width:1.07272;stroke-dasharray:none"
         id="rect77173-5-1-99-2-0-8-8-7-0-7-2-3-6"
         width="3.0086422"
         height="12.885321"
         x="3372.9524"
         y="1799.5913" /></g></g><style
     type="text/css"
     id="style82399"><![CDATA[
	.st0{fill:#4CAF50;}
	.st1{fill:#2196F3;}
	.st2{fill:#F44336;}
	.st3{fill:#262626;}
	.st4{fill:#FFD54F;}
	.st5{fill-rule:evenodd;clip-rule:evenodd;fill:#262626;}
	.st6{fill-rule:evenodd;clip-rule:evenodd;fill:#FFFFFF;}
]]></style></svg>
